<svg xmlns="http://www.w3.org/2000/svg" width="448" height="448"><path d="M420 0H28C12.523 0 0 12.523 0 28v392c0 15.477 12.523 28 28 28h392c15.477 0 28-12.523 28-28V28c0-15.477-12.523-28-28-28zM105 434H28c-7.728 0-14-6.272-14-14V28c0-7.728 4.487-14 14-14h49v273c0 3.871 3.129 7 7 7h21v140zm112 0h-98V294h21c3.871 0 7-3.129 7-7V14h42v273c0 3.871 3.129 7 7 7h21v140zm112 0h-98V294h21c3.871 0 7-3.129 7-7V14h42v273c0 3.871 3.129 7 7 7h21v140zm105-14c0 7.728-6.272 14-14 14h-77V294h21c3.871 0 7-3.129 7-7V14h49c7.112 0 14 6.272 14 14v392z"/></svg>