<svg version="1.1" id="BACKGROUND" xmlns="http://www.w3.org/2000/svg" xmlns:xlink="http://www.w3.org/1999/xlink" x="0" y="0" viewBox="0 0 750 500" style="enable-background:new 0 0 750 500" xml:space="preserve"><style>.st1{clip-path:url(#SVGID_00000046300559909982049850000017492200694304428442_)}.st100{fill:none;stroke-linecap:round;stroke-linejoin:round;stroke-miterlimit:10}.st91{stroke:url(#SVGID_00000147194629387443265190000010739119899072673188_)}.st91,.st92,.st93,.st94,.st95,.st96,.st97,.st98,.st99{fill:none;stroke-linecap:round;stroke-linejoin:round;stroke-miterlimit:10}.st92{stroke:url(#SVGID_00000118388758229408427810000015806359603102236568_)}.st93{stroke:url(#SVGID_00000064330885366618880630000006494717517222936962_)}.st94{stroke:url(#SVGID_00000029739931745298947880000016182510112462448801_)}.st95{stroke:url(#SVGID_00000031913473413917221340000013677710499030772139_)}.st96{stroke:url(#SVGID_00000036941790347388753800000000688526518932726420_)}.st97{stroke:url(#SVGID_00000024703880318860907330000001653635755164755606_)}.st98{stroke:url(#SVGID_00000050644526665972188500000006824062936494397603_)}.st99{stroke:url(#SVGID_00000089550819668088491930000017535900025168120227_)}.st100{stroke:url(#SVGID_00000039120546052247463270000012472914158047344828_)}.st101{fill:url(#SVGID_00000161595341041644301530000007717891141064520070_)}.st102{fill:url(#SVGID_00000021838452985001376110000007354757506293271457_)}.st103{fill:url(#SVGID_00000088813860536007240960000008519091612294491838_)}.st104{fill:url(#SVGID_00000168114381640469757360000013970065390857493933_)}.st105{fill:url(#SVGID_00000153684018099469352720000015504458466803154367_)}</style><radialGradient id="SVGID_1_" cx="375" cy="250" r="441.027" gradientTransform="matrix(1 0 0 .7053 0 73.686)" gradientUnits="userSpaceOnUse"><stop offset="0" style="stop-color:#460061"/><stop offset="1" style="stop-color:#020101ff"/></radialGradient><path style="fill:url(#SVGID_1_)" d="M0 0h750v500H0z"/><defs><path id="SVGID_00000103964784541097639800000013452715705624708020_" d="M0 0h750v500H0z"/></defs><clipPath id="SVGID_00000073687466169882946130000015643885576202099601_"><use xlink:href="#SVGID_00000103964784541097639800000013452715705624708020_" style="overflow:visible"/></clipPath><g style="clip-path:url(#SVGID_00000073687466169882946130000015643885576202099601_)"><path d="M780 138.6s-107.6 134-279.5 83.3c-147.6-43.5-166.1-85.3-259.1-85.3-85.1 0-158 107-275 52.6" style="fill:none;stroke:#3f51b5;stroke-linecap:round;stroke-linejoin:round;stroke-miterlimit:10"/><path d="M780.2 140.4s-109 126.4-277.8 80.5c-145.5-39.1-167.5-76.7-260.6-78.8-86.9-2-160.9 98.5-274.6 51.7" style="fill:none;stroke:#4650b8;stroke-linecap:round;stroke-linejoin:round;stroke-miterlimit:10"/><path d="M780.4 142.2s-110.4 118.3-276 77.7c-143.3-35.1-169-68.2-262.1-72.3-88.7-4-163.7 90.1-274.2 50.8" style="fill:none;stroke:#4e4fbb;stroke-linecap:round;stroke-linejoin:round;stroke-miterlimit:10"/><path d="M780.6 144s-111.8 110.5-274.3 75c-141.2-30.9-170.5-59.7-263.6-65.9-90.5-6-166.6 81.6-273.8 49.9" style="fill:none;stroke:#554fbf;stroke-linecap:round;stroke-linejoin:round;stroke-miterlimit:10"/><path d="M780.7 145.8S667.5 248.5 508.1 218c-139.1-26.6-172-51.3-265.1-59.4-92.3-8-169.4 73.2-273.3 49" style="fill:none;stroke:#5c4ec2;stroke-linecap:round;stroke-linejoin:round;stroke-miterlimit:10"/><path d="M780.9 147.6S666.2 242.5 510 217c-137-22.4-173.5-42.9-266.6-52.9-94.1-10.1-172.3 64.7-272.9 48.1" style="fill:none;stroke:#644dc5;stroke-linecap:round;stroke-linejoin:round;stroke-miterlimit:10"/><path d="M781.1 149.4S664.9 236.6 511.9 216c-134.9-18.1-175-34.5-268.1-46.4-95.9-12.3-175.2 56.3-272.5 47.3" style="fill:none;stroke:#6b4cc8;stroke-linecap:round;stroke-linejoin:round;stroke-miterlimit:10"/><path d="M781.3 151.2S663.6 230.6 513.8 215c-132.9-13.8-176.5-26.2-269.6-40-97.7-14.4-178 47.8-272.1 46.4" style="fill:none;stroke:#724ccb;stroke-linecap:round;stroke-linejoin:round;stroke-miterlimit:10"/><path d="M781.4 153s-119.2 71.7-265.8 61.1c-130.8-9.5-177.9-17.9-271.1-33.5C145 164 63.7 219.9-27.2 226.1" style="fill:none;stroke:#7a4bce;stroke-linecap:round;stroke-linejoin:round;stroke-miterlimit:10"/><path d="M781.6 154.8s-120.7 64-264.1 58.3c-128.8-5.2-179.4-9.7-272.6-27C143.6 167.2 61.2 217-26.4 230.7" style="fill:none;stroke:#814ad2;stroke-linecap:round;stroke-linejoin:round;stroke-miterlimit:10"/><path d="M781.8 156.6S659.5 213 519.4 212.1c-126.8-.8-180.9-1.5-274.1-20.5C142.1 170.5 58.7 214-25.6 235.3" style="fill:none;stroke:#8849d5;stroke-linecap:round;stroke-linejoin:round;stroke-miterlimit:10"/><path d="M781.9 158.4s-123.8 48.8-260.7 52.7c-124.8 3.6-182.4 6.7-275.6-14.1-105-23.4-189.5 14-270.5 42.8" style="fill:none;stroke:#9049d8;stroke-linecap:round;stroke-linejoin:round;stroke-miterlimit:10"/><path d="M782.1 160.2s-125.4 41.2-259 50c-122.8 8-183.9 14.9-277.1-7.6-106.7-25.7-192.3 5.5-270 41.9" style="fill:none;stroke:#9748db;stroke-linecap:round;stroke-linejoin:round;stroke-miterlimit:10"/><path d="M782.3 162.1s-126.9 33.7-257.2 47.2c-120.8 12.5-185.3 23-278.6-1.1-108.6-28.1-195.2-2.9-269.7 41" style="fill:none;stroke:#9e47de;stroke-linecap:round;stroke-linejoin:round;stroke-miterlimit:10"/><path d="M782.5 163.9S654 190.1 527 208.3c-118.8 17-186.8 31.2-280.1 5.4-110.3-30.5-198.1-11.4-269.3 40.1" style="fill:none;stroke:#a546e2;stroke-linecap:round;stroke-linejoin:round;stroke-miterlimit:10"/><path d="M782.6 165.7s-130 18.7-253.8 41.6c-116.7 21.6-188.2 39.3-281.6 11.8-112.1-32.9-200.9-19.9-268.8 39.2" style="fill:none;stroke:#ad45e5;stroke-linecap:round;stroke-linejoin:round;stroke-miterlimit:10"/><path d="M782.8 167.5s-131.5 11.3-252.1 38.9C416 232.5 341 253.7 247.6 224.6c-113.8-35.4-203.8-28.3-268.4 38.3" style="fill:none;stroke:#b445e8;stroke-linecap:round;stroke-linejoin:round;stroke-miterlimit:10"/><path d="M783 169.3s-133 4-250.4 36.1C420 236.2 341.5 260.8 248 230.2c-115.6-37.8-206.6-36.8-268 37.4" style="fill:none;stroke:#bb44eb;stroke-linecap:round;stroke-linejoin:round;stroke-miterlimit:10"/><path d="M783.1 171.1s-134.5-3.3-248.7 33.3c-110.6 35.5-192.5 63.4-286.1 31.3C131 195.4 38.8 190.5-19.3 272.2" style="fill:none;stroke:#c343ee;stroke-linecap:round;stroke-linejoin:round;stroke-miterlimit:10"/><path d="M783.3 172.9s-135.9-10.6-247 30.5c-108.4 40.2-193.9 71.5-287.6 37.7-119-42.8-212.4-53.7-267.2 35.6" style="fill:none;stroke:#ca42f1;stroke-linecap:round;stroke-linejoin:round;stroke-miterlimit:10"/><path d="M783.5 174.7s-137.3-17.9-245.3 27.7c-106.3 44.9-195.2 79.5-289.1 44.2-120.7-45.4-215.2-62.1-266.8 34.7" style="fill:none;stroke:#d142f5;stroke-linecap:round;stroke-linejoin:round;stroke-miterlimit:10"/><path d="M783.7 176.5s-138.7-25.1-243.6 25C436 251.2 343.5 289 249.5 252.1c-122.4-47.9-218.1-70.6-266.4 33.8" style="fill:none;stroke:#d941f8;stroke-linecap:round;stroke-linejoin:round;stroke-miterlimit:10"/><path d="M783.8 178.3s-140-32.3-241.9 22.2C440.1 255 344 296 249.9 257.6c-124-50.5-221-79.1-266 32.9" style="fill:none;stroke:#e040fb;stroke-linecap:round;stroke-linejoin:round;stroke-miterlimit:10"/><path d="M786.3 182.8s-138.2-27.2-243 22.1c-102.6 48.2-199.1 90.6-293 56.2-123.8-45.4-222.5-75.2-268 26.7" style="opacity:.9545;fill:none;stroke:#da43fb;stroke-linecap:round;stroke-linejoin:round;stroke-miterlimit:10"/><path d="M788.8 187.2s-136.2-22-244.1 22c-103.1 42-200.2 85.8-293.9 55.2-123.5-40.3-224-71.4-270 20.6" style="opacity:.9091;fill:none;stroke:#d447fb;stroke-linecap:round;stroke-linejoin:round;stroke-miterlimit:10"/><path d="M791.3 191.7s-134-16.7-245.2 21.9c-103.4 35.9-201.3 80.9-294.8 54.2-123.3-35.2-225.6-67.6-272 14.4" style="opacity:.8636;fill:none;stroke:#ce4afb;stroke-linecap:round;stroke-linejoin:round;stroke-miterlimit:10"/><path d="M793.8 196.2S662.1 184.8 547.5 218c-103.6 30-202.4 76-295.8 53.2-123.1-30.1-227.1-63.8-274 8.3" style="opacity:.8182;fill:none;stroke:#c94dfb;stroke-linecap:round;stroke-linejoin:round;stroke-miterlimit:10"/><path d="M796.3 200.6s-129.1-6-247.4 21.7c-103.6 24.3-203.5 71.2-296.7 52.2-122.8-25-228.7-60-276 2.2" style="opacity:.7727;fill:none;stroke:#c350fb;stroke-linecap:round;stroke-linejoin:round;stroke-miterlimit:10"/><path d="M798.7 205.1s-126.4-.4-248.5 21.6c-103.5 18.7-204.6 66.3-297.6 51.2-122.6-19.9-230.2-56.1-278-4" style="opacity:.7273;fill:none;stroke:#bd54fb;stroke-linecap:round;stroke-linejoin:round;stroke-miterlimit:10"/><path d="M801.2 209.6s-123.6 5.3-249.6 21.5c-103.3 13.3-205.7 61.4-298.5 50.2-122.3-14.8-231.8-52.3-280-10.1" style="opacity:.6818;fill:none;stroke:#b757fb;stroke-linecap:round;stroke-linejoin:round;stroke-miterlimit:10"/><path d="M803.7 214S682.9 225.2 553 235.4c-103 8.1-206.8 56.6-299.4 49.2-122.1-9.7-233.3-48.5-282-16.3" style="opacity:.6364;fill:none;stroke:#b15afb;stroke-linecap:round;stroke-linejoin:round;stroke-miterlimit:10"/><path d="M806.2 218.5s-117.8 17.3-251.8 21.3c-102.7 3-207.9 51.7-300.3 48.3-121.9-4.6-234.8-44.7-284-22.4" style="opacity:.5909;fill:none;stroke:#ab5dfb;stroke-linecap:round;stroke-linejoin:round;stroke-miterlimit:10"/><path d="M808.7 223s-114.9 23.7-252.9 21.2c-102.4-1.8-209 46.8-301.3 47.3-121.6.5-236.3-40.9-286-28.6" style="opacity:.5455;fill:none;stroke:#a561fb;stroke-linecap:round;stroke-linejoin:round;stroke-miterlimit:10"/><path d="M811.2 227.4s-112 30.2-254 21.1c-102-6.6-210.1 42-302.2 46.3-121.4 5.7-237.9-37.1-288.1-34.7" style="opacity:.5;fill:none;stroke:#9f64fb;stroke-linecap:round;stroke-linejoin:round;stroke-miterlimit:10"/><path d="M813.6 231.9s-109.1 37-255.1 21c-101.8-11.1-211.2 37.1-303.1 45.3C134.3 309 16 264.9-34.6 257.3" style="opacity:.4545;fill:none;stroke:#9a67fa;stroke-linecap:round;stroke-linejoin:round;stroke-miterlimit:10"/><path d="M816.1 236.4s-106.3 43.9-256.2 20.9c-101.5-15.6-212.3 32.2-304 44.3-120.9 15.9-241-29.4-292.1-47" style="opacity:.4091;fill:none;stroke:#946bfa;stroke-linecap:round;stroke-linejoin:round;stroke-miterlimit:10"/><path d="M818.6 240.8S715 291.9 561.3 261.6C460 241.7 348 289 256.4 304.9c-120.7 21-242.6-25.6-294.1-53.2" style="opacity:.3636;fill:none;stroke:#8e6efa;stroke-linecap:round;stroke-linejoin:round;stroke-miterlimit:10"/><path d="M821.1 245.3S720.2 303.7 562.7 266c-101.2-24.2-214.5 22.5-305.8 42.3C136.4 334.4 12.8 286.5-39.2 249" style="opacity:.3182;fill:none;stroke:#8871fa;stroke-linecap:round;stroke-linejoin:round;stroke-miterlimit:10"/><path d="M823.6 249.8s-98.4 65.9-259.5 20.6c-101.2-28.5-215.6 17.6-306.8 41.3-120.2 31.2-245.6-18-298.1-65.4" style="opacity:.2727;fill:none;stroke:#8274fa;stroke-linecap:round;stroke-linejoin:round;stroke-miterlimit:10"/><path d="M826.1 254.2s-96 73.5-260.6 20.5c-101.2-32.6-216.7 12.8-307.7 40.3-120 36.3-247.2-14.1-300.1-71.6" style="opacity:.2273;fill:none;stroke:#7c78fa;stroke-linecap:round;stroke-linejoin:round;stroke-miterlimit:10"/><path d="M828.6 258.7s-93.8 81.2-261.7 20.4c-101.4-36.7-217.8 7.9-308.6 39.3-119.7 41.5-248.7-10.3-302.1-77.7" style="opacity:.1818;fill:none;stroke:#767bfa;stroke-linecap:round;stroke-linejoin:round;stroke-miterlimit:10"/><path d="M831 263.2s-91.7 89.1-262.8 20.3c-101.6-40.8-218.9 3.1-309.5 38.4C139.3 368.4 8.5 315.3-45.4 238" style="opacity:.1364;fill:none;stroke:#717efa;stroke-linecap:round;stroke-linejoin:round;stroke-miterlimit:10"/><path d="M833.5 267.6s-89.6 97-263.9 20.2c-101.9-44.9-220-1.8-310.4 37.4-119.2 51.6-251.8-2.7-306.1-90" style="opacity:9.090900e-02;fill:none;stroke:#6b81fa;stroke-linecap:round;stroke-linejoin:round;stroke-miterlimit:10"/><path d="M836 272.1s-87.8 105-265 20.1c-102.2-48.9-221.1-6.7-311.4 36.4-119 56.7-253.3 1.1-308.1-96.2" style="opacity:4.545500e-02;fill:none;stroke:#6585fa;stroke-linecap:round;stroke-linejoin:round;stroke-miterlimit:10"/><path d="M837.8 278.9S753.5 380.7 575 293.1c-103.8-50.9-220.1-6-313.2 39.3C141 391.2 6.9 328.6-49.7 226.3" style="opacity:4.545500e-02;fill:none;stroke:#6588f6;stroke-linecap:round;stroke-linejoin:round;stroke-miterlimit:10"/><path d="M837.1 281.3s-82.6 90.6-259.4 8.4c-105-48.8-218.1-.3-314.2 43.2-122.8 55.6-255-12.7-313-110" style="opacity:9.090900e-02;fill:none;stroke:#6b87f2;stroke-linecap:round;stroke-linejoin:round;stroke-miterlimit:10"/><path d="M836.5 283.7s-81 79.6-256.1 2.7c-106.3-46.7-216 5.3-315.2 47.1-124.8 52.5-255-21.6-314.4-113.9" style="opacity:.1364;fill:none;stroke:#7187ef;stroke-linecap:round;stroke-linejoin:round;stroke-miterlimit:10"/><path d="M835.8 286s-79.5 68.6-252.7-3.1c-107.5-44.5-213.9 11-316.1 51-126.8 49.6-255.1-30.4-316-117.6" style="opacity:.1818;fill:none;stroke:#7786eb;stroke-linecap:round;stroke-linejoin:round;stroke-miterlimit:10"/><path d="M835.1 288.4s-78.1 57.7-249.4-8.9c-108.9-42.3-211.8 16.7-317.1 54.9C140 381 13.5 295.2-48.7 213" style="opacity:.2273;fill:none;stroke:#7d86e7;stroke-linecap:round;stroke-linejoin:round;stroke-miterlimit:10"/><path d="M834.4 290.8s-76.7 46.9-246.1-14.7c-110.2-40.1-209.6 22.4-318.1 58.8-130.4 43.7-255.1-48-318.8-125.2" style="opacity:.2727;fill:none;stroke:#8386e3;stroke-linecap:round;stroke-linejoin:round;stroke-miterlimit:10"/><path d="M833.7 293.1s-75.4 36.2-242.7-20.5c-111.6-37.8-207.4 28.2-319 62.7-132.3 40.9-255.2-56.8-320.2-129" style="opacity:.3182;fill:none;stroke:#8985e0;stroke-linecap:round;stroke-linejoin:round;stroke-miterlimit:10"/><path d="M833 295.5s-74.2 25.7-239.4-26.3c-113-35.5-205.3 34-320 66.6C139.6 373.9 18.5 270.1-48 203" style="opacity:.3636;fill:none;stroke:#8f85dc;stroke-linecap:round;stroke-linejoin:round;stroke-miterlimit:10"/><path d="M832.4 297.9s-73 15.2-236-32c-114.5-33.1-203.1 39.9-320.9 70.5-136 35.2-255.4-74.6-323.2-136.8" style="opacity:.4091;fill:none;stroke:#9584d8;stroke-linecap:round;stroke-linejoin:round;stroke-miterlimit:10"/><path d="M831.7 300.2S759.9 305 599 262.4c-116-30.7-200.8 45.8-321.9 74.4-137.7 32.6-255.3-83.4-324.6-140.5" style="opacity:.4545;fill:none;stroke:#9b84d4;stroke-linecap:round;stroke-linejoin:round;stroke-miterlimit:10"/><path d="M831 302.6s-70.7-5.5-229.4-43.6c-117.5-28.2-198.6 51.7-322.9 78.3-139.5 29.9-255.3-92.2-326-144.4" style="opacity:.5;fill:none;stroke:#a184d1;stroke-linecap:round;stroke-linejoin:round;stroke-miterlimit:10"/><path d="M830.3 304.9s-69.6-15.7-226-49.4c-119-25.6-196.4 57.6-323.8 82.2C139.2 365 25.1 236.7-47 189.6" style="opacity:.5455;fill:none;stroke:#a683cd;stroke-linecap:round;stroke-linejoin:round;stroke-miterlimit:10"/><path d="M829.6 307.3s-68.5-25.8-222.7-55.2c-120.6-23-194.2 63.6-324.8 86.1-143 24.6-255.4-109.9-328.9-152" style="opacity:.5909;fill:none;stroke:#ac83c9;stroke-linecap:round;stroke-linejoin:round;stroke-miterlimit:10"/><path d="M829 309.7s-67.4-35.8-219.3-60.9c-122.1-20.2-192 69.6-325.8 90C139 360.8 28.4 220-46.5 182.9" style="opacity:.6364;fill:none;stroke:#b282c5;stroke-linecap:round;stroke-linejoin:round;stroke-miterlimit:10"/><path d="M828.3 312s-66.4-45.7-216-66.7c-123.7-17.4-189.7 75.7-326.7 93.9C139 358.7 30.1 211.7-46.2 179.6" style="opacity:.6818;fill:none;stroke:#b882c1;stroke-linecap:round;stroke-linejoin:round;stroke-miterlimit:10"/><path d="M827.6 314.4s-65.3-55.5-212.7-72.5c-125.3-14.5-187.5 81.8-327.7 97.8C138.9 356.7 31.7 203.4-46 176.3" style="opacity:.7273;fill:none;stroke:#be81be;stroke-linecap:round;stroke-linejoin:round;stroke-miterlimit:10"/><path d="M826.9 316.8s-64.2-65.2-209.3-78.3C490.8 227 432.3 326.3 288.9 340.2 138.8 354.7 33.4 195-45.7 172.9" style="opacity:.7727;fill:none;stroke:#c481ba;stroke-linecap:round;stroke-linejoin:round;stroke-miterlimit:10"/><path d="M826.2 319.1s-63.1-74.8-206-84.1c-128.4-8.3-183.1 94-329.6 105.6-151.9 12-255.6-154-336.1-171.1" style="opacity:.8182;fill:none;stroke:#ca81b6;stroke-linecap:round;stroke-linejoin:round;stroke-miterlimit:10"/><path d="M825.5 321.5s-62-84.3-202.6-89.9C493 226.5 442 331.8 292.3 341.2c-153.7 9.5-255.6-162.9-337.5-175" style="opacity:.8636;fill:none;stroke:#d080b2;stroke-linecap:round;stroke-linejoin:round;stroke-miterlimit:10"/><path d="M824.9 323.9s-60.8-93.8-199.3-95.6C494.2 226.5 446.9 334.6 294 341.6 138.5 348.8 38.4 170-45 162.9" style="opacity:.9091;fill:none;stroke:#d680af;stroke-linecap:round;stroke-linejoin:round;stroke-miterlimit:10"/><path d="M824.2 326.2s-59.6-103.2-196-101.4c-132.8 1.7-176.5 112.6-332.5 117.3C138.3 346.9 40 161.6-44.7 159.6" style="opacity:.9545;fill:none;stroke:#dc7fab;stroke-linecap:round;stroke-linejoin:round;stroke-miterlimit:10"/><path d="M823.5 328.6s-58.4-112.5-192.6-107.2c-134.3 5.3-174.3 118.8-333.5 121.2C138.2 345 41.7 153.3-44.5 156.2" style="fill:none;stroke:#e27fa7;stroke-linecap:round;stroke-linejoin:round;stroke-miterlimit:10"/><path d="M823.1 324.3c.1.1-61-101.9-195.4-98.1-134.4 3.8-172.8 114.4-333 117.7-160.1 3.2-254.7-184.2-339.8-183" style="opacity:.9545;fill:none;stroke:#db7aa6;stroke-linecap:round;stroke-linejoin:round;stroke-miterlimit:10"/><path d="M822.8 319.9c.1.3-63.7-91.4-198.2-89C490 233.4 453.2 341 292.1 345.1 131 349.3 38.4 166.1-45.8 165.5" style="opacity:.9091;fill:none;stroke:#d475a5;stroke-linecap:round;stroke-linejoin:round;stroke-miterlimit:10"/><path d="M822.4 315.6c.2.4-66.4-80.9-201-79.8-134.7 1-169.9 105.6-331.9 110.6-162 5.1-252.7-173.8-335.9-176.2" style="opacity:.8636;fill:none;stroke:#cd70a3;stroke-linecap:round;stroke-linejoin:round;stroke-miterlimit:10"/><path d="M822 311.3c.2.6-69-70.3-203.8-70.7-134.8-.4-168.4 101.1-331.3 107.1-163 5.9-251.7-168.6-334-172.8" style="opacity:.8182;fill:none;stroke:#c66ca2;stroke-linecap:round;stroke-linejoin:round;stroke-miterlimit:10"/><path d="M821.6 306.9c.3.7-71.7-59.8-206.6-61.6-134.9-1.8-166.9 96.7-330.8 103.6-163.9 6.8-250.7-163.4-332-169.3" style="opacity:.7727;fill:none;stroke:#bf67a1;stroke-linecap:round;stroke-linejoin:round;stroke-miterlimit:10"/><path d="M821.3 302.6c.3.8-74.3-49.3-209.4-52.5-135.1-3.2-165.5 92.3-330.3 100-164.9 7.8-249.7-158.1-330-165.9" style="opacity:.7273;fill:none;stroke:#b962a0;stroke-linecap:round;stroke-linejoin:round;stroke-miterlimit:10"/><path d="M820.9 298.3c.4 1-77-38.7-212.2-43.4-135.2-4.6-164 87.9-329.7 96.5-165.8 8.6-248.6-153-328-162.5" style="opacity:.6818;fill:none;stroke:#b25d9e;stroke-linecap:round;stroke-linejoin:round;stroke-miterlimit:10"/><path d="M820.5 293.9c.4 1.1-79.7-28.2-215-34.3-135.3-6.1-162.5 83.4-329.2 93S28.7 204.8-49.7 193.5" style="opacity:.6364;fill:none;stroke:#ab589d;stroke-linecap:round;stroke-linejoin:round;stroke-miterlimit:10"/><path d="M820.1 289.6c.5 1.2-82.3-17.7-217.8-25.1-135.5-7.5-161 79-328.7 89.4C106 364.3 27 211.3-50.4 198.2" style="opacity:.5909;fill:none;stroke:#a4539c;stroke-linecap:round;stroke-linejoin:round;stroke-miterlimit:10"/><path d="M819.8 285.3c.5 1.4-85-7.1-220.6-16s-159.5 74.6-328.1 85.9S25.4 217.7-51 202.9" style="opacity:.5455;fill:none;stroke:#9d4e9b;stroke-linecap:round;stroke-linejoin:round;stroke-miterlimit:10"/><path d="M819.4 281c.6 1.5-87.7 3.4-223.4-6.9s-158.1 70.2-327.6 82.4-244.6-132.3-320.1-149" style="opacity:.5;fill:none;stroke:#96499a;stroke-linecap:round;stroke-linejoin:round;stroke-miterlimit:10"/><path d="M819 276.6c.6 1.7-90.3 13.9-226.2 2.2-135.9-11.7-156.6 65.7-327.1 78.8s-243.5-127-318-145.4" style="opacity:.4545;fill:none;stroke:#8f4598;stroke-linecap:round;stroke-linejoin:round;stroke-miterlimit:10"/><path d="M818.6 272.3c.7 1.8-93 24.5-229 11.3-136-13.1-155.1 61.3-326.5 75.3S20.5 237.1-53 216.8" style="opacity:.4091;fill:none;stroke:#884097;stroke-linecap:round;stroke-linejoin:round;stroke-miterlimit:10"/><path d="M818.3 268c.7 1.9-95.7 35-231.8 20.5s-153.6 56.9-326 71.7C88.1 375 18.9 243.5-53.6 221.5" style="opacity:.3636;fill:none;stroke:#813b96;stroke-linecap:round;stroke-linejoin:round;stroke-miterlimit:10"/><path d="M817.9 263.6c.8 2.1-98.3 45.5-234.6 29.6-136.2-16-152.2 52.5-325.5 68.2S17.3 250-54.3 226.2" style="opacity:.3182;fill:none;stroke:#7a3695;stroke-linecap:round;stroke-linejoin:round;stroke-miterlimit:10"/><path d="M817.5 259.3c.9 2.2-101 56.1-237.4 38.7s-150.7 48-324.9 64.7C81 379.3 15.6 256.4-54.9 230.8" style="opacity:.2727;fill:none;stroke:#733193;stroke-linecap:round;stroke-linejoin:round;stroke-miterlimit:10"/><path d="M817.2 255c.9 2.4-103.7 66.6-240.2 47.8-136.5-18.8-149.2 43.6-324.4 61.1C77.4 381.5 14 262.9-55.6 235.5" style="opacity:.2273;fill:none;stroke:#6d2c92;stroke-linecap:round;stroke-linejoin:round;stroke-miterlimit:10"/><path d="M816.8 250.6c1 2.5-106.3 77.1-243 56.9-136.6-20.2-147.7 39.2-323.9 57.6-176.1 18.4-237.5-95.9-306.2-125" style="opacity:.1818;fill:none;stroke:#662791;stroke-linecap:round;stroke-linejoin:round;stroke-miterlimit:10"/><path d="M816.4 246.3c1 2.6-109 87.7-245.8 66.1-136.8-21.6-146.3 34.8-323.3 54.1C70.2 385.8 10.8 275.8-56.9 244.8" style="opacity:.1364;fill:none;stroke:#5f2390;stroke-linecap:round;stroke-linejoin:round;stroke-miterlimit:10"/><path d="M816 242c1.1 2.8-111.7 98.2-248.6 75.2-136.9-23-144.8 30.3-322.8 50.5S9.1 282.2-57.6 249.5" style="opacity:9.090900e-02;fill:none;stroke:#581e8e;stroke-linecap:round;stroke-linejoin:round;stroke-miterlimit:10"/><path d="M815.7 237.7c1.1 2.9-114.3 108.7-251.4 84.3S421 347.9 242 369C63.1 390.1 7.5 288.7-58.2 254.2" style="opacity:4.545500e-02;fill:none;stroke:#51198d;stroke-linecap:round;stroke-linejoin:round;stroke-miterlimit:10"/><linearGradient id="SVGID_00000044885704680418720180000017832295389455874725_" gradientUnits="userSpaceOnUse" x1="461.777" y1="248.428" x2="605.32" y2="104.885"><stop offset="0" style="stop-color:#311b92;stop-opacity:0"/><stop offset="1" style="stop-color:#448aff"/></linearGradient><circle style="fill:none;stroke:url(#SVGID_00000044885704680418720180000017832295389455874725_);stroke-linecap:round;stroke-linejoin:round;stroke-miterlimit:10" cx="533.5" cy="176.7" r="101"/><linearGradient id="SVGID_00000102521394532510563110000016218576150385153956_" gradientUnits="userSpaceOnUse" x1="641.214" y1="335.64" x2="676.758" y2="300.096"><stop offset="0" style="stop-color:#e040fb"/><stop offset="1" style="stop-color:#311b92;stop-opacity:0"/></linearGradient><circle transform="rotate(-76.856 659.014 317.862)" style="fill:none;stroke:url(#SVGID_00000102521394532510563110000016218576150385153956_);stroke-linecap:round;stroke-linejoin:round;stroke-miterlimit:10" cx="659" cy="317.9" r="24.6"/><linearGradient id="SVGID_00000145753988809213094220000017317639726097969799_" gradientUnits="userSpaceOnUse" x1="129.378" y1="186.558" x2="164.922" y2="151.015"><stop offset="0" style="stop-color:#311b92;stop-opacity:0"/><stop offset="1" style="stop-color:#448aff"/></linearGradient><circle transform="rotate(-45.001 147.149 168.79)" style="fill:none;stroke:url(#SVGID_00000145753988809213094220000017317639726097969799_);stroke-linecap:round;stroke-linejoin:round;stroke-miterlimit:10" cx="147.1" cy="168.8" r="24.6"/><linearGradient id="SVGID_00000092417757840903430430000008255818994906597273_" gradientUnits="userSpaceOnUse" x1="238.048" y1="403.768" x2="317.952" y2="323.865"><stop offset="0" style="stop-color:#e040fb"/><stop offset="1" style="stop-color:#311b92;stop-opacity:0"/></linearGradient><circle style="fill:none;stroke:url(#SVGID_00000092417757840903430430000008255818994906597273_);stroke-linecap:round;stroke-linejoin:round;stroke-miterlimit:10" cx="278" cy="363.8" r="56"/><linearGradient id="SVGID_00000003805963571797603990000006363972543882703495_" gradientUnits="userSpaceOnUse" x1="203.007" y1="109" x2="390.007" y2="109"><stop offset="0" style="stop-color:#448aff;stop-opacity:0"/><stop offset="1" style="stop-color:#e040fb"/></linearGradient><path style="fill:none;stroke:url(#SVGID_00000003805963571797603990000006363972543882703495_);stroke-linecap:round;stroke-linejoin:round;stroke-miterlimit:10" d="M203.5 109h186"/><linearGradient id="SVGID_00000080893091672553361450000012687863140289419681_" gradientUnits="userSpaceOnUse" x1="-.5" y1="317.868" x2="136.5" y2="317.868"><stop offset="0" style="stop-color:#448aff;stop-opacity:0"/><stop offset="1" style="stop-color:#e040fb"/></linearGradient><path style="fill:none;stroke:url(#SVGID_00000080893091672553361450000012687863140289419681_);stroke-linecap:round;stroke-linejoin:round;stroke-miterlimit:10" d="M0 317.9h136"/><linearGradient id="SVGID_00000145044137468650538290000001862733487865196220_" gradientUnits="userSpaceOnUse" x1="467.25" y1="290.526" x2="604.25" y2="290.526"><stop offset="0" style="stop-color:#448aff;stop-opacity:0"/><stop offset="1" style="stop-color:#e040fb"/></linearGradient><path style="fill:none;stroke:url(#SVGID_00000145044137468650538290000001862733487865196220_);stroke-linecap:round;stroke-linejoin:round;stroke-miterlimit:10" d="M467.8 290.5h136"/><linearGradient id="SVGID_00000095302511780768168500000008103690717370169751_" gradientUnits="userSpaceOnUse" x1="386.049" y1="378" x2="487.049" y2="378"><stop offset="0" style="stop-color:#448aff"/><stop offset="1" style="stop-color:#311b92;stop-opacity:0"/></linearGradient><path style="fill:none;stroke:url(#SVGID_00000095302511780768168500000008103690717370169751_);stroke-linecap:round;stroke-linejoin:round;stroke-miterlimit:10" d="M386.5 378h100"/><linearGradient id="SVGID_00000138549979109380561980000014815538814797067914_" gradientUnits="userSpaceOnUse" x1="467.25" y1="182.958" x2="544.75" y2="182.958"><stop offset="0" style="stop-color:#448aff"/><stop offset="1" style="stop-color:#311b92;stop-opacity:0"/></linearGradient><path style="fill:none;stroke:url(#SVGID_00000138549979109380561980000014815538814797067914_);stroke-linecap:round;stroke-linejoin:round;stroke-miterlimit:10" d="M467.8 183h76.4"/><linearGradient id="SVGID_00000150818177605915474590000002789801135992613783_" gradientUnits="userSpaceOnUse" x1="29.5" y1="177.657" x2="84.5" y2="177.657"><stop offset="0" style="stop-color:#448aff"/><stop offset="1" style="stop-color:#311b92;stop-opacity:0"/></linearGradient><path style="fill:none;stroke:url(#SVGID_00000150818177605915474590000002789801135992613783_);stroke-linecap:round;stroke-linejoin:round;stroke-miterlimit:10" d="M30 177.7h54"/><radialGradient id="SVGID_00000112623054934034068440000000104751607925225149_" cx="333.934" cy="271.77" r="155.448" gradientTransform="matrix(1.4731 0 0 .3123 -157.918 187.67)" gradientUnits="userSpaceOnUse"><stop offset="0" style="stop-color:#304ffe"/><stop offset="1" style="stop-color:#000;stop-opacity:0"/></radialGradient><ellipse style="fill:url(#SVGID_00000112623054934034068440000000104751607925225149_)" cx="334" cy="272.5" rx="229" ry="48.5"/><radialGradient id="SVGID_00000098181094108382065780000004515502566665651873_" cx="562.823" cy="-31.848" r="122.996" gradientTransform="matrix(1.467 -.1342 .0284 .311 -153.757 263.092)" gradientUnits="userSpaceOnUse"><stop offset="0" style="stop-color:#304ffe"/><stop offset="1" style="stop-color:#000;stop-opacity:0"/></radialGradient><path style="fill:url(#SVGID_00000098181094108382065780000004515502566665651873_)" d="M851.4 161.2c1.9 21.1-77.3 45.6-176.9 54.8s-182-.6-183.9-21.7c-1.9-21.1 77.3-45.6 176.9-54.8 99.7-9.2 182 .5 183.9 21.7z"/><radialGradient id="SVGID_00000150077867607289183180000008004872840175289509_" cx="184.155" cy="278.363" r="123.001" gradientTransform="matrix(1.2854 .7196 -.1525 .2725 -58.263 82.153)" gradientUnits="userSpaceOnUse"><stop offset="0" style="stop-color:#7c4dff"/><stop offset="1" style="stop-color:#000;stop-opacity:0"/></radialGradient><path style="fill:url(#SVGID_00000150077867607289183180000008004872840175289509_)" d="M294.1 379c-10.4 18.5-89.5-6.1-176.9-55S-32.5 220.5-22.1 202c10.4-18.5 89.5 6.1 176.9 55s149.7 103.5 139.3 122z"/><radialGradient id="SVGID_00000121253357286646126800000009681671106736147082_" cx="546.542" cy="-721.665" r="122.996" gradientTransform="matrix(1.3518 .5852 -.1241 .2866 -67.76 152.122)" gradientUnits="userSpaceOnUse"><stop offset="0" style="stop-color:#e040fb"/><stop offset="1" style="stop-color:#000;stop-opacity:0"/></radialGradient><path style="fill:url(#SVGID_00000121253357286646126800000009681671106736147082_)" d="M926.9 337.1c-8.4 19.5-89.7 3-181.5-36.7s-159.4-87.8-151-107.2c8.4-19.5 89.7-3 181.5 36.7s159.4 87.7 151 107.2z"/><radialGradient id="SVGID_00000123425332933547410100000014713209985667135925_" cx="357.605" cy="-178.709" r="122.997" gradientTransform="matrix(1.3581 -.5706 .121 .2879 -32.768 563.316)" gradientUnits="userSpaceOnUse"><stop offset="0" style="stop-color:#ff80ab"/><stop offset="1" style="stop-color:#000;stop-opacity:0"/></radialGradient><path style="fill:url(#SVGID_00000123425332933547410100000014713209985667135925_)" d="M598.3 237.6c8.2 19.6-59.9 66.8-152.2 105.6-92.2 38.8-173.7 54.4-181.9 34.8-8.2-19.6 59.9-66.8 152.2-105.6 92.2-38.8 173.7-54.3 181.9-34.8z"/></g></svg>