<?xml version="1.0" encoding="utf-8"?> 
<svg version="1.1" id="BACKGROUND" xmlns="http://www.w3.org/2000/svg" xmlns:xlink="http://www.w3.org/1999/xlink" x="0px" y="0px"
	 viewBox="0 0 750 500" style="enable-background:new 0 0 750 500;" xml:space="preserve">
<style type="text/css">
	.st0{fill:url(#SVGID_1_);}
	.st1{clip-path:url(#SVGID_00000046300559909982049850000017492200694304428442_);}
	.st2{fill:none;stroke:#3F51B5;stroke-linecap:round;stroke-linejoin:round;stroke-miterlimit:10;}
	.st3{fill:none;stroke:#4650B8;stroke-linecap:round;stroke-linejoin:round;stroke-miterlimit:10;}

	.st4{fill:none;stroke:#4E4FBB;stroke-linecap:round;stroke-linejoin:round;stroke-miterlimit:10;}

	.st5{fill:none;stroke:#554FBF;stroke-linecap:round;stroke-linejoin:round;stroke-miterlimit:10;}
	.st6{fill:none;stroke:#5C4EC2;stroke-linecap:round;stroke-linejoin:round;stroke-miterlimit:10;}
	.st7{fill:none;stroke:#644DC5;stroke-linecap:round;stroke-linejoin:round;stroke-miterlimit:10;}
	.st8{fill:none;stroke:#6B4CC8;stroke-linecap:round;stroke-linejoin:round;stroke-miterlimit:10;}
	.st9{fill:none;stroke:#724CCB;stroke-linecap:round;stroke-linejoin:round;stroke-miterlimit:10;}
	.st10{fill:none;stroke:#7A4BCE;stroke-linecap:round;stroke-linejoin:round;stroke-miterlimit:10;}

	.st11{fill:none;stroke:#814AD2;stroke-linecap:round;stroke-linejoin:round;stroke-miterlimit:10;}
	.st12{fill:none;stroke:#8849D5;stroke-linecap:round;stroke-linejoin:round;stroke-miterlimit:10;}
	.st13{fill:none;stroke:#9049D8;stroke-linecap:round;stroke-linejoin:round;stroke-miterlimit:10;}
	.st14{fill:none;stroke:#9748DB;stroke-linecap:round;stroke-linejoin:round;stroke-miterlimit:10;}
	.st15{fill:none;stroke:#9E47DE;stroke-linecap:round;stroke-linejoin:round;stroke-miterlimit:10;}
	.st16{fill:none;stroke:#A546E2;stroke-linecap:round;stroke-linejoin:round;stroke-miterlimit:10;}
	.st17{fill:none;stroke:#AD45E5;stroke-linecap:round;stroke-linejoin:round;stroke-miterlimit:10;}
	.st18{fill:none;stroke:#B445E8;stroke-linecap:round;stroke-linejoin:round;stroke-miterlimit:10;}
	.st19{fill:none;stroke:#BB44EB;stroke-linecap:round;stroke-linejoin:round;stroke-miterlimit:10;}
	.st20{fill:none;stroke:#C343EE;stroke-linecap:round;stroke-linejoin:round;stroke-miterlimit:10;}
	.st21{fill:none;stroke:#CA42F1;stroke-linecap:round;stroke-linejoin:round;stroke-miterlimit:10;}
	.st22{fill:none;stroke:#D142F5;stroke-linecap:round;stroke-linejoin:round;stroke-miterlimit:10;}
	.st23{fill:none;stroke:#D941F8;stroke-linecap:round;stroke-linejoin:round;stroke-miterlimit:10;}
	.st24{fill:none;stroke:#E040FB;stroke-linecap:round;stroke-linejoin:round;stroke-miterlimit:10;}
	.st25{opacity:0.9545;fill:none;stroke:#DA43FB;stroke-linecap:round;stroke-linejoin:round;stroke-miterlimit:10;}
	.st26{opacity:0.9091;fill:none;stroke:#D447FB;stroke-linecap:round;stroke-linejoin:round;stroke-miterlimit:10;}
	.st27{opacity:0.8636;fill:none;stroke:#CE4AFB;stroke-linecap:round;stroke-linejoin:round;stroke-miterlimit:10;}
	.st28{opacity:0.8182;fill:none;stroke:#C94DFB;stroke-linecap:round;stroke-linejoin:round;stroke-miterlimit:10;}
	.st29{opacity:0.7727;fill:none;stroke:#C350FB;stroke-linecap:round;stroke-linejoin:round;stroke-miterlimit:10;}
	.st30{opacity:0.7273;fill:none;stroke:#BD54FB;stroke-linecap:round;stroke-linejoin:round;stroke-miterlimit:10;}
	.st31{opacity:0.6818;fill:none;stroke:#B757FB;stroke-linecap:round;stroke-linejoin:round;stroke-miterlimit:10;}
	.st32{opacity:0.6364;fill:none;stroke:#B15AFB;stroke-linecap:round;stroke-linejoin:round;stroke-miterlimit:10;}
	.st33{opacity:0.5909;fill:none;stroke:#AB5DFB;stroke-linecap:round;stroke-linejoin:round;stroke-miterlimit:10;}
	.st34{opacity:0.5455;fill:none;stroke:#A561FB;stroke-linecap:round;stroke-linejoin:round;stroke-miterlimit:10;}
	.st35{opacity:0.5;fill:none;stroke:#9F64FB;stroke-linecap:round;stroke-linejoin:round;stroke-miterlimit:10;}
	.st36{opacity:0.4545;fill:none;stroke:#9A67FA;stroke-linecap:round;stroke-linejoin:round;stroke-miterlimit:10;}
	.st37{opacity:0.4091;fill:none;stroke:#946BFA;stroke-linecap:round;stroke-linejoin:round;stroke-miterlimit:10;}
	
	.st38{opacity:0.3636;fill:none;stroke:#8E6EFA;stroke-linecap:round;stroke-linejoin:round;stroke-miterlimit:10;}
	.st39{opacity:0.3182;fill:none;stroke:#8871FA;stroke-linecap:round;stroke-linejoin:round;stroke-miterlimit:10;}
	.st40{opacity:0.2727;fill:none;stroke:#8274FA;stroke-linecap:round;stroke-linejoin:round;stroke-miterlimit:10;}
	.st41{opacity:0.2273;fill:none;stroke:#7C78FA;stroke-linecap:round;stroke-linejoin:round;stroke-miterlimit:10;}
	.st42{opacity:0.1818;fill:none;stroke:#767BFA;stroke-linecap:round;stroke-linejoin:round;stroke-miterlimit:10;}
	.st43{opacity:0.1364;fill:none;stroke:#717EFA;stroke-linecap:round;stroke-linejoin:round;stroke-miterlimit:10;}
	.st44{opacity:9.090900e-02;fill:none;stroke:#6B81FA;stroke-linecap:round;stroke-linejoin:round;stroke-miterlimit:10;}
	.st45{opacity:4.545500e-02;fill:none;stroke:#6585FA;stroke-linecap:round;stroke-linejoin:round;stroke-miterlimit:10;}
	.st46{opacity:0;fill:none;stroke:#5F88FA;stroke-linecap:round;stroke-linejoin:round;stroke-miterlimit:10;}
	.st47{opacity:4.545500e-02;fill:none;stroke:#6588F6;stroke-linecap:round;stroke-linejoin:round;stroke-miterlimit:10;}
	.st48{opacity:9.090900e-02;fill:none;stroke:#6B87F2;stroke-linecap:round;stroke-linejoin:round;stroke-miterlimit:10;}
	.st49{opacity:0.1364;fill:none;stroke:#7187EF;stroke-linecap:round;stroke-linejoin:round;stroke-miterlimit:10;}
	.st50{opacity:0.1818;fill:none;stroke:#7786EB;stroke-linecap:round;stroke-linejoin:round;stroke-miterlimit:10;}
	.st51{opacity:0.2273;fill:none;stroke:#7D86E7;stroke-linecap:round;stroke-linejoin:round;stroke-miterlimit:10;}
	.st52{opacity:0.2727;fill:none;stroke:#8386E3;stroke-linecap:round;stroke-linejoin:round;stroke-miterlimit:10;}
	.st53{opacity:0.3182;fill:none;stroke:#8985E0;stroke-linecap:round;stroke-linejoin:round;stroke-miterlimit:10;}
	.st54{opacity:0.3636;fill:none;stroke:#8F85DC;stroke-linecap:round;stroke-linejoin:round;stroke-miterlimit:10;}
	.st55{opacity:0.4091;fill:none;stroke:#9584D8;stroke-linecap:round;stroke-linejoin:round;stroke-miterlimit:10;}
	.st56{opacity:0.4545;fill:none;stroke:#9B84D4;stroke-linecap:round;stroke-linejoin:round;stroke-miterlimit:10;}
	.st57{opacity:0.5;fill:none;stroke:#A184D1;stroke-linecap:round;stroke-linejoin:round;stroke-miterlimit:10;}
	.st58{opacity:0.5455;fill:none;stroke:#A683CD;stroke-linecap:round;stroke-linejoin:round;stroke-miterlimit:10;}
	.st59{opacity:0.5909;fill:none;stroke:#AC83C9;stroke-linecap:round;stroke-linejoin:round;stroke-miterlimit:10;}
	.st60{opacity:0.6364;fill:none;stroke:#B282C5;stroke-linecap:round;stroke-linejoin:round;stroke-miterlimit:10;}
	.st61{opacity:0.6818;fill:none;stroke:#B882C1;stroke-linecap:round;stroke-linejoin:round;stroke-miterlimit:10;}
	.st62{opacity:0.7273;fill:none;stroke:#BE81BE;stroke-linecap:round;stroke-linejoin:round;stroke-miterlimit:10;}
	.st63{opacity:0.7727;fill:none;stroke:#C481BA;stroke-linecap:round;stroke-linejoin:round;stroke-miterlimit:10;}
	.st64{opacity:0.8182;fill:none;stroke:#CA81B6;stroke-linecap:round;stroke-linejoin:round;stroke-miterlimit:10;}
	.st65{opacity:0.8636;fill:none;stroke:#D080B2;stroke-linecap:round;stroke-linejoin:round;stroke-miterlimit:10;}
	.st66{opacity:0.9091;fill:none;stroke:#D680AF;stroke-linecap:round;stroke-linejoin:round;stroke-miterlimit:10;}
	.st67{opacity:0.9545;fill:none;stroke:#DC7FAB;stroke-linecap:round;stroke-linejoin:round;stroke-miterlimit:10;}
	.st68{fill:none;stroke:#E27FA7;stroke-linecap:round;stroke-linejoin:round;stroke-miterlimit:10;}
	.st69{opacity:0.9545;fill:none;stroke:#DB7AA6;stroke-linecap:round;stroke-linejoin:round;stroke-miterlimit:10;}
	.st70{opacity:0.9091;fill:none;stroke:#D475A5;stroke-linecap:round;stroke-linejoin:round;stroke-miterlimit:10;}
	.st71{opacity:0.8636;fill:none;stroke:#CD70A3;stroke-linecap:round;stroke-linejoin:round;stroke-miterlimit:10;}
	.st72{opacity:0.8182;fill:none;stroke:#C66CA2;stroke-linecap:round;stroke-linejoin:round;stroke-miterlimit:10;}
	.st73{opacity:0.7727;fill:none;stroke:#BF67A1;stroke-linecap:round;stroke-linejoin:round;stroke-miterlimit:10;}
	.st74{opacity:0.7273;fill:none;stroke:#B962A0;stroke-linecap:round;stroke-linejoin:round;stroke-miterlimit:10;}
	.st75{opacity:0.6818;fill:none;stroke:#B25D9E;stroke-linecap:round;stroke-linejoin:round;stroke-miterlimit:10;}
	.st76{opacity:0.6364;fill:none;stroke:#AB589D;stroke-linecap:round;stroke-linejoin:round;stroke-miterlimit:10;}
	.st77{opacity:0.5909;fill:none;stroke:#A4539C;stroke-linecap:round;stroke-linejoin:round;stroke-miterlimit:10;}
	.st78{opacity:0.5455;fill:none;stroke:#9D4E9B;stroke-linecap:round;stroke-linejoin:round;stroke-miterlimit:10;}
	.st79{opacity:0.5;fill:none;stroke:#96499A;stroke-linecap:round;stroke-linejoin:round;stroke-miterlimit:10;}
	.st80{opacity:0.4545;fill:none;stroke:#8F4598;stroke-linecap:round;stroke-linejoin:round;stroke-miterlimit:10;}
	.st81{opacity:0.4091;fill:none;stroke:#884097;stroke-linecap:round;stroke-linejoin:round;stroke-miterlimit:10;}
	.st82{opacity:0.3636;fill:none;stroke:#813B96;stroke-linecap:round;stroke-linejoin:round;stroke-miterlimit:10;}
	.st83{opacity:0.3182;fill:none;stroke:#7A3695;stroke-linecap:round;stroke-linejoin:round;stroke-miterlimit:10;}
	.st84{opacity:0.2727;fill:none;stroke:#733193;stroke-linecap:round;stroke-linejoin:round;stroke-miterlimit:10;}
	.st85{opacity:0.2273;fill:none;stroke:#6D2C92;stroke-linecap:round;stroke-linejoin:round;stroke-miterlimit:10;}
	.st86{opacity:0.1818;fill:none;stroke:#662791;stroke-linecap:round;stroke-linejoin:round;stroke-miterlimit:10;}
	.st87{opacity:0.1364;fill:none;stroke:#5F2390;stroke-linecap:round;stroke-linejoin:round;stroke-miterlimit:10;}
	.st88{opacity:9.090900e-02;fill:none;stroke:#581E8E;stroke-linecap:round;stroke-linejoin:round;stroke-miterlimit:10;}
	.st89{opacity:4.545500e-02;fill:none;stroke:#51198D;stroke-linecap:round;stroke-linejoin:round;stroke-miterlimit:10;}
	.st90{opacity:0;fill:none;stroke:#4A148C;stroke-linecap:round;stroke-linejoin:round;stroke-miterlimit:10;}
	
		.st91{fill:none;stroke:url(#SVGID_00000147194629387443265190000010739119899072673188_);stroke-linecap:round;stroke-linejoin:round;stroke-miterlimit:10;}
	
		.st92{fill:none;stroke:url(#SVGID_00000118388758229408427810000015806359603102236568_);stroke-linecap:round;stroke-linejoin:round;stroke-miterlimit:10;}
	
		.st93{fill:none;stroke:url(#SVGID_00000064330885366618880630000006494717517222936962_);stroke-linecap:round;stroke-linejoin:round;stroke-miterlimit:10;}
	
		.st94{fill:none;stroke:url(#SVGID_00000029739931745298947880000016182510112462448801_);stroke-linecap:round;stroke-linejoin:round;stroke-miterlimit:10;}
	
		.st95{fill:none;stroke:url(#SVGID_00000031913473413917221340000013677710499030772139_);stroke-linecap:round;stroke-linejoin:round;stroke-miterlimit:10;}
	
		.st96{fill:none;stroke:url(#SVGID_00000036941790347388753800000000688526518932726420_);stroke-linecap:round;stroke-linejoin:round;stroke-miterlimit:10;}
	
		.st97{fill:none;stroke:url(#SVGID_00000024703880318860907330000001653635755164755606_);stroke-linecap:round;stroke-linejoin:round;stroke-miterlimit:10;}
	
		.st98{fill:none;stroke:url(#SVGID_00000050644526665972188500000006824062936494397603_);stroke-linecap:round;stroke-linejoin:round;stroke-miterlimit:10;}
	
		.st99{fill:none;stroke:url(#SVGID_00000089550819668088491930000017535900025168120227_);stroke-linecap:round;stroke-linejoin:round;stroke-miterlimit:10;}
	
		.st100{fill:none;stroke:url(#SVGID_00000039120546052247463270000012472914158047344828_);stroke-linecap:round;stroke-linejoin:round;stroke-miterlimit:10;}
	.st101{fill:url(#SVGID_00000161595341041644301530000007717891141064520070_);}
	.st102{fill:url(#SVGID_00000021838452985001376110000007354757506293271457_);}
	.st103{fill:url(#SVGID_00000088813860536007240960000008519091612294491838_);}
	.st104{fill:url(#SVGID_00000168114381640469757360000013970065390857493933_);}
	.st105{fill:url(#SVGID_00000153684018099469352720000015504458466803154367_);}
</style>
<g>
	
		<radialGradient id="SVGID_1_" cx="375" cy="250" r="441.0269" gradientTransform="matrix(1 0 0 0.7053 0 73.6865)" gradientUnits="userSpaceOnUse">
		<stop  offset="0" style="stop-color:#460061"/>
		<stop  offset="1" style="stop-color:#04162E"/>
	</radialGradient>
	<rect class="st0" width="750" height="500"/>
	<g>
		<defs>
			<rect id="SVGID_00000103964784541097639800000013452715705624708020_" width="750" height="500"/>
		</defs>
		<clipPath id="SVGID_00000073687466169882946130000015643885576202099601_">
			<use xlink:href="#SVGID_00000103964784541097639800000013452715705624708020_"  style="overflow:visible;"/>
		</clipPath>
		<g style="clip-path:url(#SVGID_00000073687466169882946130000015643885576202099601_);">
			<g>
				<path class="st2" d="M780,138.6c0,0-107.6,134-279.5,83.3c-147.6-43.5-166.1-85.3-259.1-85.3c-85.1,0-158,107-275,52.6"/>
				<path class="st3" d="M780.2,140.4c0,0-109,126.4-277.8,80.5c-145.5-39.1-167.5-76.7-260.6-78.8c-86.9-2-160.9,98.5-274.6,51.7"
					/>
				<path class="st4" d="M780.4,142.2c0,0-110.4,118.3-276,77.7c-143.3-35.1-169-68.2-262.1-72.3c-88.7-4-163.7,90.1-274.2,50.8"/>
				<path class="st5" d="M780.6,144c0,0-111.8,110.5-274.3,75c-141.2-30.9-170.5-59.7-263.6-65.9c-90.5-6-166.6,81.6-273.8,49.9"/>
				<path class="st6" d="M780.7,145.8c0,0-113.2,102.7-272.6,72.2c-139.1-26.6-172-51.3-265.1-59.4c-92.3-8-169.4,73.2-273.3,49"/>
				<path class="st7" d="M780.9,147.6c0,0-114.7,94.9-270.9,69.4c-137-22.4-173.5-42.9-266.6-52.9C149.3,154,71.1,228.8-29.5,212.2"
					/>
				<path class="st8" d="M781.1,149.4c0,0-116.2,87.2-269.2,66.6c-134.9-18.1-175-34.5-268.1-46.4c-95.9-12.3-175.2,56.3-272.5,47.3
					"/>
				<path class="st9" d="M781.3,151.2c0,0-117.7,79.4-267.5,63.8c-132.9-13.8-176.5-26.2-269.6-40c-97.7-14.4-178,47.8-272.1,46.4"
					/>
				<path class="st10" d="M781.4,153c0,0-119.2,71.7-265.8,61.1c-130.8-9.5-177.9-17.9-271.1-33.5C145,164,63.7,219.9-27.2,226.1"/>
				<path class="st11" d="M781.6,154.8c0,0-120.7,64-264.1,58.3c-128.8-5.2-179.4-9.7-272.6-27C143.6,167.2,61.2,217-26.4,230.7"/>
				<path class="st12" d="M781.8,156.6c0,0-122.3,56.4-262.4,55.5c-126.8-0.8-180.9-1.5-274.1-20.5C142.1,170.5,58.7,214-25.6,235.3
					"/>
				<path class="st13" d="M781.9,158.4c0,0-123.8,48.8-260.7,52.7c-124.8,3.6-182.4,6.7-275.6-14.1c-105-23.4-189.5,14-270.5,42.8"
					/>
				<path class="st14" d="M782.1,160.2c0,0-125.4,41.2-259,50c-122.8,8-183.9,14.9-277.1-7.6C139.3,176.9,53.7,208.1-24,244.5"/>
				<path class="st15" d="M782.3,162.1c0,0-126.9,33.7-257.2,47.2c-120.8,12.5-185.3,23-278.6-1.1c-108.6-28.1-195.2-2.9-269.7,41"
					/>
				<path class="st16" d="M782.5,163.9c0,0-128.5,26.2-255.5,44.4c-118.8,17-186.8,31.2-280.1,5.4
					c-110.3-30.5-198.1-11.4-269.3,40.1"/>
				<path class="st17" d="M782.6,165.7c0,0-130,18.7-253.8,41.6c-116.7,21.6-188.2,39.3-281.6,11.8
					c-112.1-32.9-200.9-19.9-268.8,39.2"/>
				<path class="st18" d="M782.8,167.5c0,0-131.5,11.3-252.1,38.9C416,232.5,341,253.7,247.6,224.6
					c-113.8-35.4-203.8-28.3-268.4,38.3"/>
				<path class="st19" d="M783,169.3c0,0-133,4-250.4,36.1c-112.6,30.8-191.1,55.4-284.6,24.8c-115.6-37.8-206.6-36.8-268,37.4"/>
				<path class="st20" d="M783.1,171.1c0,0-134.5-3.3-248.7,33.3c-110.6,35.5-192.5,63.4-286.1,31.3
					c-117.3-40.3-209.5-45.2-267.6,36.5"/>
				<path class="st21" d="M783.3,172.9c0,0-135.9-10.6-247,30.5c-108.4,40.2-193.9,71.5-287.6,37.7c-119-42.8-212.4-53.7-267.2,35.6
					"/>
				<path class="st22" d="M783.5,174.7c0,0-137.3-17.9-245.3,27.7c-106.3,44.9-195.2,79.5-289.1,44.2
					c-120.7-45.4-215.2-62.1-266.8,34.7"/>
				<path class="st23" d="M783.7,176.5c0,0-138.7-25.1-243.6,25C436,251.2,343.5,289,249.5,252.1c-122.4-47.9-218.1-70.6-266.4,33.8
					"/>
				<path class="st24" d="M783.8,178.3c0,0-140-32.3-241.9,22.2C440.1,255,344,296,249.9,257.6c-124-50.5-221-79.1-266,32.9"/>
				<path class="st25" d="M786.3,182.8c0,0-138.2-27.2-243,22.1c-102.6,48.2-199.1,90.6-293,56.2c-123.8-45.4-222.5-75.2-268,26.7"
					/>
				<path class="st26" d="M788.8,187.2c0,0-136.2-22-244.1,22c-103.1,42-200.2,85.8-293.9,55.2c-123.5-40.3-224-71.4-270,20.6"/>
				<path class="st27" d="M791.3,191.7c0,0-134-16.7-245.2,21.9c-103.4,35.9-201.3,80.9-294.8,54.2c-123.3-35.2-225.6-67.6-272,14.4
					"/>
				<path class="st28" d="M793.8,196.2c0,0-131.7-11.4-246.3,21.8c-103.6,30-202.4,76-295.8,53.2c-123.1-30.1-227.1-63.8-274,8.3"/>
				<path class="st29" d="M796.3,200.6c0,0-129.1-6-247.4,21.7c-103.6,24.3-203.5,71.2-296.7,52.2c-122.8-25-228.7-60-276,2.2"/>
				<path class="st30" d="M798.7,205.1c0,0-126.4-0.4-248.5,21.6c-103.5,18.7-204.6,66.3-297.6,51.2c-122.6-19.9-230.2-56.1-278-4"
					/>
				<path class="st31" d="M801.2,209.6c0,0-123.6,5.3-249.6,21.5c-103.3,13.3-205.7,61.4-298.5,50.2
					c-122.3-14.8-231.8-52.3-280-10.1"/>
				<path class="st32" d="M803.7,214c0,0-120.8,11.2-250.7,21.4c-103,8.1-206.8,56.6-299.4,49.2c-122.1-9.7-233.3-48.5-282-16.3"/>
				<path class="st33" d="M806.2,218.5c0,0-117.8,17.3-251.8,21.3c-102.7,3-207.9,51.7-300.3,48.3c-121.9-4.6-234.8-44.7-284-22.4"
					/>
				<path class="st34" d="M808.7,223c0,0-114.9,23.7-252.9,21.2c-102.4-1.8-209,46.8-301.3,47.3C132.9,292,18.2,250.6-31.5,262.9"/>
				<path class="st35" d="M811.2,227.4c0,0-112,30.2-254,21.1c-102-6.6-210.1,42-302.2,46.3c-121.4,5.7-237.9-37.1-288.1-34.7"/>
				<path class="st36" d="M813.6,231.9c0,0-109.1,37-255.1,21c-101.8-11.1-211.2,37.1-303.1,45.3C134.3,309,16,264.9-34.6,257.3"/>
				<path class="st37" d="M816.1,236.4c0,0-106.3,43.9-256.2,20.9c-101.5-15.6-212.3,32.2-304,44.3c-120.9,15.9-241-29.4-292.1-47"
					/>
				<path class="st38" d="M818.6,240.8c0,0-103.6,51.1-257.3,20.8C460,241.7,348,289,256.4,304.9c-120.7,21-242.6-25.6-294.1-53.2"
					/>
				<path class="st39" d="M821.1,245.3c0,0-100.9,58.4-258.4,20.7c-101.2-24.2-214.5,22.5-305.8,42.3
					C136.4,334.4,12.8,286.5-39.2,249"/>
				<path class="st40" d="M823.6,249.8c0,0-98.4,65.9-259.5,20.6c-101.2-28.5-215.6,17.6-306.8,41.3
					c-120.2,31.2-245.6-18-298.1-65.4"/>
				<path class="st41" d="M826.1,254.2c0,0-96,73.5-260.6,20.5c-101.2-32.6-216.7,12.8-307.7,40.3c-120,36.3-247.2-14.1-300.1-71.6"
					/>
				<path class="st42" d="M828.6,258.7c0,0-93.8,81.2-261.7,20.4c-101.4-36.7-217.8,7.9-308.6,39.3
					C138.6,359.9,9.6,308.1-43.8,240.7"/>
				<path class="st43" d="M831,263.2c0,0-91.7,89.1-262.8,20.3c-101.6-40.8-218.9,3.1-309.5,38.4C139.3,368.4,8.5,315.3-45.4,238"/>
				<path class="st44" d="M833.5,267.6c0,0-89.6,97-263.9,20.2c-101.9-44.9-220-1.8-310.4,37.4c-119.2,51.6-251.8-2.7-306.1-90"/>
				<path class="st45" d="M836,272.1c0,0-87.8,105-265,20.1c-102.2-48.9-221.1-6.7-311.4,36.4c-119,56.7-253.3,1.1-308.1-96.2"/>
				<path class="st46" d="M838.5,276.6c0,0-86,113-266.1,20c-102.6-53-222.1-11.5-312.3,35.4C141.4,393.8,5.2,336.9-50,229.7"/>
				<path class="st47" d="M837.8,278.9c0,0-84.3,101.8-262.8,14.2c-103.8-50.9-220.1-6-313.2,39.3C141,391.2,6.9,328.6-49.7,226.3"
					/>
				<path class="st48" d="M837.1,281.3c0,0-82.6,90.6-259.4,8.4c-105-48.8-218.1-0.3-314.2,43.2c-122.8,55.6-255-12.7-313-110"/>
				<path class="st49" d="M836.5,283.7c0,0-81,79.6-256.1,2.7c-106.3-46.7-216,5.3-315.2,47.1C140.4,386,10.2,311.9-49.2,219.6"/>
				<path class="st50" d="M835.8,286c0,0-79.5,68.6-252.7-3.1c-107.5-44.5-213.9,11-316.1,51C140.2,383.5,11.9,303.5-49,216.3"/>
				<path class="st51" d="M835.1,288.4c0,0-78.1,57.7-249.4-8.9c-108.9-42.3-211.8,16.7-317.1,54.9C140,381,13.5,295.2-48.7,213"/>
				<path class="st52" d="M834.4,290.8c0,0-76.7,46.9-246.1-14.7c-110.2-40.1-209.6,22.4-318.1,58.8
					c-130.4,43.7-255.1-48-318.8-125.2"/>
				<path class="st53" d="M833.7,293.1c0,0-75.4,36.2-242.7-20.5c-111.6-37.8-207.4,28.2-319,62.7
					C139.7,376.2,16.8,278.5-48.2,206.3"/>
				<path class="st54" d="M833,295.5c0,0-74.2,25.7-239.4-26.3c-113-35.5-205.3,34-320,66.6C139.6,373.9,18.5,270.1-48,203"/>
				<path class="st55" d="M832.4,297.9c0,0-73,15.2-236-32c-114.5-33.1-203.1,39.9-320.9,70.5C139.5,371.6,20.1,261.8-47.7,199.6"/>
				<path class="st56" d="M831.7,300.2c0,0-71.8,4.8-232.7-37.8c-116-30.7-200.8,45.8-321.9,74.4C139.4,369.4,21.8,253.4-47.5,196.3
					"/>
				<path class="st57" d="M831,302.6c0,0-70.7-5.5-229.4-43.6c-117.5-28.2-198.6,51.7-322.9,78.3c-139.5,29.9-255.3-92.2-326-144.4"
					/>
				<path class="st58" d="M830.3,304.9c0,0-69.6-15.7-226-49.4c-119-25.6-196.4,57.6-323.8,82.2C139.2,365,25.1,236.7-47,189.6"/>
				<path class="st59" d="M829.6,307.3c0,0-68.5-25.8-222.7-55.2c-120.6-23-194.2,63.6-324.8,86.1c-143,24.6-255.4-109.9-328.9-152"
					/>
				<path class="st60" d="M829,309.7c0,0-67.4-35.8-219.3-60.9c-122.1-20.2-192,69.6-325.8,90C139,360.8,28.4,220-46.5,182.9"/>
				<path class="st61" d="M828.3,312c0,0-66.4-45.7-216-66.7c-123.7-17.4-189.7,75.7-326.7,93.9C139,358.7,30.1,211.7-46.2,179.6"/>
				<path class="st62" d="M827.6,314.4c0,0-65.3-55.5-212.7-72.5c-125.3-14.5-187.5,81.8-327.7,97.8
					C138.9,356.7,31.7,203.4-46,176.3"/>
				<path class="st63" d="M826.9,316.8c0,0-64.2-65.2-209.3-78.3C490.8,227,432.3,326.3,288.9,340.2
					C138.8,354.7,33.4,195-45.7,172.9"/>
				<path class="st64" d="M826.2,319.1c0,0-63.1-74.8-206-84.1c-128.4-8.3-183.1,94-329.6,105.6c-151.9,12-255.6-154-336.1-171.1"/>
				<path class="st65" d="M825.5,321.5c0,0-62-84.3-202.6-89.9C493,226.5,442,331.8,292.3,341.2C138.6,350.7,36.7,178.3-45.2,166.2"
					/>
				<path class="st66" d="M824.9,323.9c0,0-60.8-93.8-199.3-95.6C494.2,226.5,446.9,334.6,294,341.6C138.5,348.8,38.4,170-45,162.9"
					/>
				<path class="st67" d="M824.2,326.2c0,0-59.6-103.2-196-101.4c-132.8,1.7-176.5,112.6-332.5,117.3
					C138.3,346.9,40,161.6-44.7,159.6"/>
				<path class="st68" d="M823.5,328.6c0,0-58.4-112.5-192.6-107.2c-134.3,5.3-174.3,118.8-333.5,121.2
					C138.2,345,41.7,153.3-44.5,156.2"/>
				<path class="st69" d="M823.1,324.3c0.1,0.1-61-101.9-195.4-98.1c-134.4,3.8-172.8,114.4-333,117.7
					C134.6,347.1,40,159.7-45.1,160.9"/>
				<path class="st70" d="M822.8,319.9c0.1,0.3-63.7-91.4-198.2-89C490,233.4,453.2,341,292.1,345.1
					c-161.1,4.2-253.7-179-337.9-179.6"/>
				<path class="st71" d="M822.4,315.6c0.2,0.4-66.4-80.9-201-79.8c-134.7,1-169.9,105.6-331.9,110.6
					c-162,5.1-252.7-173.8-335.9-176.2"/>
				<path class="st72" d="M822,311.3c0.2,0.6-69-70.3-203.8-70.7c-134.8-0.4-168.4,101.1-331.3,107.1
					C123.9,353.6,35.2,179.1-47.1,174.9"/>
				<path class="st73" d="M821.6,306.9c0.3,0.7-71.7-59.8-206.6-61.6c-134.9-1.8-166.9,96.7-330.8,103.6
					c-163.9,6.8-250.7-163.4-332-169.3"/>
				<path class="st74" d="M821.3,302.6c0.3,0.8-74.3-49.3-209.4-52.5c-135.1-3.2-165.5,92.3-330.3,100
					C116.7,357.9,31.9,192-48.4,184.2"/>
				<path class="st75" d="M820.9,298.3c0.4,1-77-38.7-212.2-43.4c-135.2-4.6-164,87.9-329.7,96.5c-165.8,8.6-248.6-153-328-162.5"/>
				<path class="st76" d="M820.5,293.9c0.4,1.1-79.7-28.2-215-34.3c-135.3-6.1-162.5,83.4-329.2,93S28.7,204.8-49.7,193.5"/>
				<path class="st77" d="M820.1,289.6c0.5,1.2-82.3-17.7-217.8-25.1c-135.5-7.5-161,79-328.7,89.4C106,364.3,27,211.3-50.4,198.2"
					/>
				<path class="st78" d="M819.8,285.3c0.5,1.4-85-7.1-220.6-16c-135.6-8.9-159.5,74.6-328.1,85.9S25.4,217.7-51,202.9"/>
				<path class="st79" d="M819.4,281c0.6,1.5-87.7,3.4-223.4-6.9s-158.1,70.2-327.6,82.4S23.8,224.2-51.7,207.5"/>
				<path class="st80" d="M819,276.6c0.6,1.7-90.3,13.9-226.2,2.2c-135.9-11.7-156.6,65.7-327.1,78.8S22.2,230.6-52.3,212.2"/>
				<path class="st81" d="M818.6,272.3c0.7,1.8-93,24.5-229,11.3c-136-13.1-155.1,61.3-326.5,75.3S20.5,237.1-53,216.8"/>
				<path class="st82" d="M818.3,268c0.7,1.9-95.7,35-231.8,20.5s-153.6,56.9-326,71.7C88.1,375,18.9,243.5-53.6,221.5"/>
				<path class="st83" d="M817.9,263.6c0.8,2.1-98.3,45.5-234.6,29.6c-136.2-16-152.2,52.5-325.5,68.2S17.3,250-54.3,226.2"/>
				<path class="st84" d="M817.5,259.3c0.9,2.2-101,56.1-237.4,38.7s-150.7,48-324.9,64.7C81,379.3,15.6,256.4-54.9,230.8"/>
				<path class="st85" d="M817.2,255c0.9,2.4-103.7,66.6-240.2,47.8c-136.5-18.8-149.2,43.6-324.4,61.1
					C77.4,381.5,14,262.9-55.6,235.5"/>
				<path class="st86" d="M816.8,250.6c1,2.5-106.3,77.1-243,56.9c-136.6-20.2-147.7,39.2-323.9,57.6
					c-176.1,18.4-237.5-95.9-306.2-125"/>
				<path class="st87" d="M816.4,246.3c1,2.6-109,87.7-245.8,66.1c-136.8-21.6-146.3,34.8-323.3,54.1
					C70.2,385.8,10.8,275.8-56.9,244.8"/>
				<path class="st88" d="M816,242c1.1,2.8-111.7,98.2-248.6,75.2c-136.9-23-144.8,30.3-322.8,50.5S9.1,282.2-57.6,249.5"/>
				<path class="st89" d="M815.7,237.7c1.1,2.9-114.3,108.7-251.4,84.3S421,347.9,242,369C63.1,390.1,7.5,288.7-58.2,254.2"/>
				<path class="st90" d="M815.3,233.3c1.2,3-117,119.3-254.2,93.4c-137.2-25.9-141.8,21.5-321.7,43.5
					C59.5,392.2,5.9,295.1-58.9,258.8"/>
			</g>
			<g>
				
					<linearGradient id="SVGID_00000044885704680418720180000017832295389455874725_" gradientUnits="userSpaceOnUse" x1="461.7775" y1="248.428" x2="605.3201" y2="104.8854">
					<stop  offset="0" style="stop-color:#311B92;stop-opacity:0"/>
					<stop  offset="1" style="stop-color:#448AFF"/>
				</linearGradient>
				
					<circle style="fill:none;stroke:url(#SVGID_00000044885704680418720180000017832295389455874725_);stroke-linecap:round;stroke-linejoin:round;stroke-miterlimit:10;" cx="533.5" cy="176.7" r="101"/>
				
					<linearGradient id="SVGID_00000102521394532510563110000016218576150385153956_" gradientUnits="userSpaceOnUse" x1="641.2139" y1="335.6396" x2="676.7575" y2="300.0959">
					<stop  offset="0" style="stop-color:#E040FB"/>
					<stop  offset="1" style="stop-color:#311B92;stop-opacity:0"/>
				</linearGradient>
				
					<ellipse transform="matrix(0.2274 -0.9738 0.9738 0.2274 199.6197 887.3279)" style="fill:none;stroke:url(#SVGID_00000102521394532510563110000016218576150385153956_);stroke-linecap:round;stroke-linejoin:round;stroke-miterlimit:10;" cx="659" cy="317.9" rx="24.6" ry="24.6"/>
				
					<linearGradient id="SVGID_00000145753988809213094220000017317639726097969799_" gradientUnits="userSpaceOnUse" x1="129.3781" y1="186.5584" x2="164.9218" y2="151.0147">
					<stop  offset="0" style="stop-color:#311B92;stop-opacity:0"/>
					<stop  offset="1" style="stop-color:#448AFF"/>
				</linearGradient>
				
					<ellipse transform="matrix(0.7071 -0.7071 0.7071 0.7071 -76.2509 153.4872)" style="fill:none;stroke:url(#SVGID_00000145753988809213094220000017317639726097969799_);stroke-linecap:round;stroke-linejoin:round;stroke-miterlimit:10;" cx="147.1" cy="168.8" rx="24.6" ry="24.6"/>
				
					<linearGradient id="SVGID_00000092417757840903430430000008255818994906597273_" gradientUnits="userSpaceOnUse" x1="238.0485" y1="403.7678" x2="317.9515" y2="323.8647">
					<stop  offset="0" style="stop-color:#E040FB"/>
					<stop  offset="1" style="stop-color:#311B92;stop-opacity:0"/>
				</linearGradient>
				
					<circle style="fill:none;stroke:url(#SVGID_00000092417757840903430430000008255818994906597273_);stroke-linecap:round;stroke-linejoin:round;stroke-miterlimit:10;" cx="278" cy="363.8" r="56"/>
				
					<linearGradient id="SVGID_00000003805963571797603990000006363972543882703495_" gradientUnits="userSpaceOnUse" x1="203.0072" y1="109" x2="390.0072" y2="109">
					<stop  offset="0" style="stop-color:#448AFF;stop-opacity:0"/>
					<stop  offset="1" style="stop-color:#E040FB"/>
				</linearGradient>
				
					<line style="fill:none;stroke:url(#SVGID_00000003805963571797603990000006363972543882703495_);stroke-linecap:round;stroke-linejoin:round;stroke-miterlimit:10;" x1="203.5" y1="109" x2="389.5" y2="109"/>
				
					<linearGradient id="SVGID_00000080893091672553361450000012687863140289419681_" gradientUnits="userSpaceOnUse" x1="-0.5" y1="317.8677" x2="136.5" y2="317.8677">
					<stop  offset="0" style="stop-color:#448AFF;stop-opacity:0"/>
					<stop  offset="1" style="stop-color:#E040FB"/>
				</linearGradient>
				
					<line style="fill:none;stroke:url(#SVGID_00000080893091672553361450000012687863140289419681_);stroke-linecap:round;stroke-linejoin:round;stroke-miterlimit:10;" x1="0" y1="317.9" x2="136" y2="317.9"/>
				
					<linearGradient id="SVGID_00000145044137468650538290000001862733487865196220_" gradientUnits="userSpaceOnUse" x1="467.25" y1="290.5255" x2="604.25" y2="290.5255">
					<stop  offset="0" style="stop-color:#448AFF;stop-opacity:0"/>
					<stop  offset="1" style="stop-color:#E040FB"/>
				</linearGradient>
				
					<line style="fill:none;stroke:url(#SVGID_00000145044137468650538290000001862733487865196220_);stroke-linecap:round;stroke-linejoin:round;stroke-miterlimit:10;" x1="467.8" y1="290.5" x2="603.8" y2="290.5"/>
				
					<linearGradient id="SVGID_00000095302511780768168500000008103690717370169751_" gradientUnits="userSpaceOnUse" x1="386.0488" y1="378" x2="487.0488" y2="378">
					<stop  offset="0" style="stop-color:#448AFF"/>
					<stop  offset="1" style="stop-color:#311B92;stop-opacity:0"/>
				</linearGradient>
				
					<line style="fill:none;stroke:url(#SVGID_00000095302511780768168500000008103690717370169751_);stroke-linecap:round;stroke-linejoin:round;stroke-miterlimit:10;" x1="386.5" y1="378" x2="486.5" y2="378"/>
				
					<linearGradient id="SVGID_00000138549979109380561980000014815538814797067914_" gradientUnits="userSpaceOnUse" x1="467.25" y1="182.958" x2="544.75" y2="182.958">
					<stop  offset="0" style="stop-color:#448AFF"/>
					<stop  offset="1" style="stop-color:#311B92;stop-opacity:0"/>
				</linearGradient>
				
					<line style="fill:none;stroke:url(#SVGID_00000138549979109380561980000014815538814797067914_);stroke-linecap:round;stroke-linejoin:round;stroke-miterlimit:10;" x1="467.8" y1="183" x2="544.2" y2="183"/>
				
					<linearGradient id="SVGID_00000150818177605915474590000002789801135992613783_" gradientUnits="userSpaceOnUse" x1="29.5" y1="177.6567" x2="84.5" y2="177.6567">
					<stop  offset="0" style="stop-color:#448AFF"/>
					<stop  offset="1" style="stop-color:#311B92;stop-opacity:0"/>
				</linearGradient>
				
					<line style="fill:none;stroke:url(#SVGID_00000150818177605915474590000002789801135992613783_);stroke-linecap:round;stroke-linejoin:round;stroke-miterlimit:10;" x1="30" y1="177.7" x2="84" y2="177.7"/>
			</g>
			<g>
				
					<radialGradient id="SVGID_00000112623054934034068440000000104751607925225149_" cx="333.9337" cy="271.7696" r="155.4478" gradientTransform="matrix(1.4731 0 0 0.3123 -157.9178 187.6706)" gradientUnits="userSpaceOnUse">
					<stop  offset="0" style="stop-color:#304FFE"/>
					<stop  offset="1" style="stop-color:#000000;stop-opacity:0"/>
				</radialGradient>
				
					<ellipse style="fill:url(#SVGID_00000112623054934034068440000000104751607925225149_);" cx="334" cy="272.5" rx="229" ry="48.5"/>
				
					<radialGradient id="SVGID_00000098181094108382065780000004515502566665651873_" cx="562.8229" cy="-31.8481" r="122.9962" gradientTransform="matrix(1.467 -0.1342 2.840000e-02 0.311 -153.7567 263.0923)" gradientUnits="userSpaceOnUse">
					<stop  offset="0" style="stop-color:#304FFE"/>
					<stop  offset="1" style="stop-color:#000000;stop-opacity:0"/>
				</radialGradient>
				<path style="fill:url(#SVGID_00000098181094108382065780000004515502566665651873_);" d="M851.4,161.2
					c1.9,21.1-77.3,45.6-176.9,54.8s-182-0.6-183.9-21.7c-1.9-21.1,77.3-45.6,176.9-54.8C767.2,130.3,849.5,140,851.4,161.2z"/>
				
					<radialGradient id="SVGID_00000150077867607289183180000008004872840175289509_" cx="184.1554" cy="278.3627" r="123.0013" gradientTransform="matrix(1.2854 0.7196 -0.1525 0.2725 -58.2631 82.1534)" gradientUnits="userSpaceOnUse">
					<stop  offset="0" style="stop-color:#7C4DFF"/>
					<stop  offset="1" style="stop-color:#000000;stop-opacity:0"/>
				</radialGradient>
				<path style="fill:url(#SVGID_00000150077867607289183180000008004872840175289509_);" d="M294.1,379
					c-10.4,18.5-89.5-6.1-176.9-55S-32.5,220.5-22.1,202c10.4-18.5,89.5,6.1,176.9,55S304.5,360.5,294.1,379z"/>
				
					<radialGradient id="SVGID_00000121253357286646126800000009681671106736147082_" cx="546.5419" cy="-721.6647" r="122.9961" gradientTransform="matrix(1.3518 0.5852 -0.1241 0.2866 -67.7603 152.1223)" gradientUnits="userSpaceOnUse">
					<stop  offset="0" style="stop-color:#E040FB"/>
					<stop  offset="1" style="stop-color:#000000;stop-opacity:0"/>
				</radialGradient>
				<path style="fill:url(#SVGID_00000121253357286646126800000009681671106736147082_);" d="M926.9,337.1
					c-8.4,19.5-89.7,3-181.5-36.7s-159.4-87.8-151-107.2c8.4-19.5,89.7-3,181.5,36.7C867.7,269.6,935.3,317.6,926.9,337.1z"/>
				
					<radialGradient id="SVGID_00000123425332933547410100000014713209985667135925_" cx="357.6046" cy="-178.7095" r="122.9974" gradientTransform="matrix(1.3581 -0.5706 0.121 0.2879 -32.768 563.316)" gradientUnits="userSpaceOnUse">
					<stop  offset="0" style="stop-color:#FF80AB"/>
					<stop  offset="1" style="stop-color:#000000;stop-opacity:0"/>
				</radialGradient>
				<path style="fill:url(#SVGID_00000123425332933547410100000014713209985667135925_);" d="M598.3,237.6
					c8.2,19.6-59.9,66.8-152.2,105.6C353.9,382,272.4,397.6,264.2,378c-8.2-19.6,59.9-66.8,152.2-105.6
					C508.6,233.6,590.1,218.1,598.3,237.6z"/>
			</g>
		</g>
	</g>
</g>
</svg>
